<?xml version="1.0" encoding="UTF-8"?>
<svg id="Warstwa_1" xmlns="http://www.w3.org/2000/svg" xmlns:xlink="http://www.w3.org/1999/xlink" version="1.1" viewBox="0 0 31.2 31.2">
  <!-- Generator: Adobe Illustrator 30.3.0, SVG Export Plug-In . SVG Version: 2.1.3 Build 182)  -->
  <defs>
    <style>
      .st0, .st1 {
        fill: none;
      }

      .st2 {
        fill: url(#Gradient_bez_nazwy);
        fill-rule: evenodd;
      }

      .st1 {
        stroke: url(#Nowa_próbka_gradientu_2);
        stroke-miterlimit: 10;
      }

      .st3 {
        fill: #e1ef42;
      }

      .st4 {
        clip-path: url(#clippath);
      }
    </style>
    <linearGradient id="Nowa_próbka_gradientu_2" data-name="Nowa próbka gradientu 2" x1=".9" y1="15.6" x2="30.3" y2="15.6" gradientUnits="userSpaceOnUse">
      <stop offset=".3" stop-color="#5dd971"/>
      <stop offset="1" stop-color="#ecfa66"/>
    </linearGradient>
    <linearGradient id="Gradient_bez_nazwy" data-name="Gradient bez nazwy" x1="4.6" y1="161.7" x2="26.9" y2="164.5" gradientTransform="translate(0 -146)" gradientUnits="userSpaceOnUse">
      <stop offset=".3" stop-color="#5dd971"/>
      <stop offset="1" stop-color="#ecfa66"/>
    </linearGradient>
    <clipPath id="clippath">
      <rect class="st0" x="4.4" y="2.4" width="11.5" height="12.3"/>
    </clipPath>
  </defs>
  <rect class="st1" x="1.4" y="1.4" width="28.4" height="28.4"/>
  <path class="st2" d="M15.9,8.7v-3.8h0c5.4,0,9.9,4.4,9.9,9.8s-4.4,9.9-9.8,9.9-4.3-.7-6-2v5.5h-3.8v-13.3h3.8c0,3.3,2.7,6,6,6s6-2.7,6-6-2.7-6-6-6h0Z"/>
  <g class="st4">
    <g>
      <path class="st3" d="M11.8,10.5c1.3-1.3,3.1-1.8,4.1-1.8h-5.9v6h0c0-.9.5-3,1.8-4.2Z"/>
      <path class="st3" d="M8.7,7.1c-1.1,1.1-2.5,2.2-4.3,2.7h6.7V2.4h0c-.5,2-1.3,3.6-2.4,4.7Z"/>
    </g>
  </g>
</svg>