<svg width="95" height="29" viewBox="0 0 95 29" fill="none" xmlns="http://www.w3.org/2000/svg">
<path fill-rule="evenodd" clip-rule="evenodd" d="M93.9594 7.38399L89.1914 7.41237L82.1371 15.1273L82.0646 2.18814L78.3183 2.20706L78.4476 25.1754L82.1907 25.1565L82.1497 17.5361L89.2891 25.1155L94.0571 25.0902L85.8361 16.2813L93.9594 7.38399ZM39.0485 2.29533L42.7948 2.27326L42.7979 2.27641L42.8263 7.54163L47.1402 7.5164L47.1591 11.035L42.8452 11.0602L42.8925 19.8376C42.8988 21.3888 43.621 21.7262 45.0589 21.7167L47.2159 21.7041L47.2348 25.2227L44.5102 25.2384C40.9531 25.2573 39.162 22.8454 39.1431 19.516L39.0958 11.0791L39.0769 7.56054L39.0485 2.29533ZM29.5597 10.6913C27.7433 10.7008 26.7248 11.4637 26.7311 12.3339L26.7342 12.3371C26.7406 13.5017 28.4816 14.0048 30.5532 14.6034C33.5964 15.4828 37.3533 16.5685 37.3739 20.2601C37.3928 24.1192 33.8484 26.0676 30.367 26.0865C27.3397 26.1054 24.5709 24.8317 22.4771 22.65L25.2269 20.1372C26.5955 21.6064 28.3425 22.5018 30.3102 22.4923C32.4293 22.4797 33.6339 21.4519 33.6276 20.4682C33.6212 19.295 31.8546 18.7742 29.7628 18.1576C26.7278 17.263 23.0085 16.1665 22.9879 12.583C22.9658 8.87528 26.3243 7.116 29.6543 7.09709C32.4167 7.08132 34.9584 8.20057 36.8599 10.1585L34.1101 12.6713C32.8929 11.4291 31.3761 10.6818 29.5597 10.6913ZM48.9597 14.8593L49.0165 25.3393L52.7628 25.3172L52.706 14.8373C52.6934 12.8321 54.2764 11.2336 56.282 11.2241L59.1958 11.2084L59.1769 7.57631L56.1496 7.59208C52.1762 7.61415 48.9408 10.8868 48.9629 14.8593H48.9597ZM68.8863 18.2928C71.0433 18.2801 72.888 16.4925 72.8723 13.9198V13.9166L72.8376 7.4975L76.5839 7.47543L76.6596 21.083C76.6879 26.6068 73.257 28.6687 68.1484 28.6971L64.3643 28.7191L64.3422 24.9736L68.1642 24.9515C71.0023 24.9358 72.929 24.0561 72.9101 21.1051V20.8024C71.778 21.4897 70.3811 21.8744 68.9052 21.8838C64.2508 21.909 61.1288 18.5607 61.1036 13.9829L61.0689 7.5637L64.7774 7.54479L64.8121 13.9639C64.8278 16.5366 66.7294 18.3054 68.8863 18.2928ZM11.5188 6.2868L11.4967 2.44351L11.4936 2.44036C16.9207 2.40883 21.3576 6.79756 21.3891 12.2236C21.4206 17.6496 17.031 22.0856 11.604 22.1171C9.34925 22.1297 7.27113 21.3794 5.60296 20.1119L5.63449 25.5789L1.77468 25.601L1.70215 12.3371L1.71161 12.3497V12.3371L5.55566 12.315C5.57458 15.6192 8.27708 18.2959 11.585 18.277C14.8898 18.2581 17.5671 15.5561 17.5482 12.2488C17.5293 8.94463 14.8268 6.26789 11.5188 6.2868Z" fill="url(#paint0_linear_273_26287)"/>
<g clip-path="url(#clip0_273_26287)">
<path d="M7.42515 8.07353C8.74281 6.81284 10.527 6.28921 11.511 6.30913V6.29205H5.58154V12.2597H5.59851C5.58154 11.3234 6.13858 9.3086 7.42515 8.07353Z" fill="#E1EF42"/>
<path d="M4.26687 4.7214C3.20934 5.78858 1.71919 6.87568 0 7.40499V7.42776H6.71275V0.000213623H6.69296C6.1444 2.03496 5.38095 3.59731 4.26687 4.7214Z" fill="#E1EF42"/>
</g>
<defs>
<linearGradient id="paint0_linear_273_26287" x1="-4.64298" y1="8.66643" x2="101.398" y2="21.9757" gradientUnits="userSpaceOnUse">
<stop offset="0.32999" stop-color="#5DD971"/>
<stop offset="1" stop-color="#ECFA66"/>
</linearGradient>
<clipPath id="clip0_273_26287">
<rect width="11.514" height="12.2569" fill="white"/>
</clipPath>
</defs>
</svg>
